# xmcd
#
# Track frame offsets:
#	150
#	21307
#	38787
#	55887
#	72982
#	92010
#	106462
#	120365
#	135172
#	153495
#	170062
#	191220
#	208700
#	225797
#	242892
#	261922
#	276372
#	290275
#	305085
#	323410
#
# Disc length: 4531
#
# Revision: 1
# Processed by: cddbd v1.5.1PL0 Copyright (c) Steve Scherf et al.
# Submitted via: audiograbber 1.82.02
# Normalized: r0:DSETVAR1
#
DISCID=1d11b114
DTITLE=Various Artist - THC0011
DYEAR=2000
DGENRE=Country
TTITLE0=Brooks, Garth (GV) - When You Come Back To Me Again
TTITLE1=Evans, Sara (GV) - Born To Fly
TTITLE2=Black, Clint (GV) - Love She Can't Live Without
TTITLE3=Strait, George (GV) - Go On
TTITLE4=Tritt, Travis (GV) - Best Of Intentions
TTITLE5=Yearwood, Trisha (GV) - Where Are You Now
TTITLE6=Diamond Rio (GV) - Stuff
TTITLE7=Clark, Terri (GV) - Little Gasoline, A
TTITLE8=Yankee Grey (GV) - This Time Around
TTITLE9=Dixie Chicks, The (GV) - Without You
TTITLE10=Brooks, Garth - When You Come Back To Me Again
TTITLE11=Evans, Sara - Born To Fly
TTITLE12=Black, Clint - Love She Can't Live Without
TTITLE13=Strait, George - Go On
TTITLE14=Tritt, Travis - Best Of Intentions
TTITLE15=Yearwood, Trisha - Where Are You Now
TTITLE16=Diamond Rio - Stuff
TTITLE17=Clark, Terri - Little Gasoline, A
TTITLE18=Yankee Grey - This Time Around
TTITLE19=Dixie Chicks - Without You
EXTD=
EXTT0=
EXTT1=
EXTT2=
EXTT3=
EXTT4=
EXTT5=
EXTT6=
EXTT7=
EXTT8=
EXTT9=
EXTT10=
EXTT11=
EXTT12=
EXTT13=
EXTT14=
EXTT15=
EXTT16=
EXTT17=
EXTT18=
EXTT19=
PLAYORDER=
